<?xml version="1.0" standalone="no"?><!DOCTYPE svg PUBLIC "-//W3C//DTD SVG 1.1//EN" "http://www.w3.org/Graphics/SVG/1.1/DTD/svg11.dtd"><svg t="1612257723916" class="icon" viewBox="0 0 1024 1024" version="1.1" xmlns="http://www.w3.org/2000/svg" p-id="1528" xmlns:xlink="http://www.w3.org/1999/xlink" width="200" height="200"><defs><style type="text/css"></style></defs><path d="M864.16 380m-84 0a84 84 0 1 0 168 0 84 84 0 1 0-168 0Z" fill="#DEFF8B" p-id="1529"></path><path d="M948.16 263.84m-59.84 0a59.84 59.84 0 1 0 119.68 0 59.84 59.84 0 1 0-119.68 0Z" fill="#DEFF8B" p-id="1530"></path><path d="M721.12 636.96a159.04 159.04 0 0 0-80-21.12 160.8 160.8 0 0 0-160 160v6.4a131.84 131.84 0 0 0 9.92 17.76 383.04 383.04 0 0 0 230.08-163.04zM432 108.16A384 384 0 0 0 51.36 440.48c60.32-1.28 176.96-20.32 177.92-148a170.72 170.72 0 0 0 28.64 96.96 192 192 0 0 0 3.36-33.12 179.52 179.52 0 0 0 4.64 42.72 130.56 130.56 0 0 0 102.88 40.32h414.08v-11.68a384 384 0 0 0-25.92-138.88A384 384 0 0 0 432 108.16z" fill="#DEFF8B" p-id="1531"></path><path d="M400 811.52c-10.88 0-21.76 0-32-1.44v137.12a32 32 0 0 0 65.12 0v-137.12q-17.12 1.44-33.12 1.44z" fill="#F38EFF" p-id="1532"></path><path d="M1024 263.84a75.84 75.84 0 1 0-151.52 0 81.6 81.6 0 0 0 1.92 16h-10.24A99.68 99.68 0 0 0 784 320 400 400 0 0 0 400 28.32a400 400 0 0 0-400 400v11.84a400 400 0 0 0 350.72 384v123.04a48 48 0 0 0 96.96 0v-122.72c12.16-1.44 24-3.36 35.68-5.92l10.88-2.72 1.76 0.16c5.44-1.28 10.72-2.88 16-4.32l4.64-1.28q7.68-2.4 16-5.28l4.64-1.44 11.68-4.64c7.84-3.2 16-6.4 23.04-10.08h1.44c5.6-2.72 11.04-5.6 16-8.48h0.8a400 400 0 0 0 139.36-126.08l1.92-2.56 7.52-11.84 3.84-6.24 5.76-10.08c1.6-2.88 3.2-5.76 4.64-8.64l2.72-4.96 5.12-10.08a398.24 398.24 0 0 0 37.44-144 99.68 99.68 0 0 0 165.92-74.88 97.76 97.76 0 0 0-8.96-41.12A75.68 75.68 0 0 0 1024 263.84z m-794.24 12.8a16 16 0 0 0-16 15.2v3.84a118.24 118.24 0 0 1-37.76 89.6c-43.52 38.4-113.76 40.16-144 39.2v-8-9.12c0-3.04 0-6.24 0.8-9.44s0-6.08 0-9.12 0.8-6.08 1.12-9.12 0-6.24 1.28-9.28 0.96-5.92 1.6-8.8 1.12-6.08 1.76-9.12 1.28-5.76 1.92-8.64 1.44-6.08 2.24-9.12 1.44-5.6 2.24-8.32 1.76-6.08 2.72-9.12 1.76-5.28 2.72-7.84 2.08-6.08 3.2-9.12 1.92-5.12 2.88-7.52l3.68-9.12 3.36-7.36c1.28-2.88 2.56-5.92 4-8.8l3.68-7.04 4.48-8.8 3.84-6.56 5.12-8.8 4-6.24c1.92-2.88 3.68-5.76 5.6-8.48l4.32-6.08c1.92-2.88 3.84-5.6 5.92-8.32l4.48-5.76c2.24-2.72 4.32-5.44 6.56-8s3.04-3.68 4.48-5.44l8-7.84 4.8-5.12 7.36-7.68 5.12-4.8c2.56-2.4 4.96-4.96 7.68-7.2l5.28-4.64 8-6.88c1.76-1.6 3.68-2.88 5.6-4.48l8.32-6.4 5.76-4.16c2.88-2.08 5.6-4.16 8.64-6.08l5.76-3.68 9.12-5.76 5.92-3.52c3.2-1.76 6.24-3.68 9.44-5.28l6.4-3.36 9.28-4.8 6.56-2.88 9.76-4.48 6.88-2.56a103.04 103.04 0 0 1 9.76-3.84l7.68-2.56 9.6-3.2 7.68-2.24 9.76-2.72 8-1.92 9.6-2.24 8.48-1.44 9.6-1.76L352 64l9.92-1.12c3.52 0 7.2 0 10.88-0.96h51.36l13.28 1.12h6.56l11.84 1.44 6.56 1.28 11.36 1.92 7.04 1.6 10.72 2.56 6.88 1.92 10.56 3.04 6.72 2.24 10.24 3.52 6.72 2.56 9.92 4 6.72 2.88 9.6 4.32 6.4 3.36 9.44 4.8 6.24 3.52 9.12 5.28 6.24 4 8.64 5.6 6.08 4.16 8.32 5.92 5.92 4.64 7.84 6.24 5.76 4.96 7.68 6.56 5.44 5.28c2.4 2.24 4.96 4.48 7.2 6.88l5.44 5.44c2.24 2.4 4.64 4.8 6.72 7.2s3.52 3.84 5.12 5.92 4.48 4.8 6.56 7.36l4.8 6.08 6.08 7.68 4.64 6.4c1.92 2.72 3.84 5.28 5.6 8l4.32 6.72 5.28 8 4.16 7.2c1.6 2.72 3.2 5.44 4.64 8.16s2.72 4.96 4 7.52 2.88 5.44 4.16 8.16 2.4 5.12 3.52 7.68 2.72 5.76 4 8.64 2.08 5.28 3.2 7.84l3.36 8.64 2.88 8.32c0.96 2.88 2.08 5.76 2.88 8.64s1.76 5.76 2.56 8.64 1.76 5.76 2.56 8.64 1.44 5.92 2.08 8.96 1.44 5.76 2.08 8.8 1.12 6.08 1.76 9.12 1.12 5.76 1.6 8.8 0 6.24 1.28 9.28a12.48 12.48 0 0 0 0 2.56 96 96 0 0 0 1.6 16V423.04h-398.4a118.88 118.88 0 0 1-89.44-32.8 147.2 147.2 0 0 1-34.24-94.88 19.36 19.36 0 0 0 0-3.04 16 16 0 0 0-14.24-15.68zM33.12 456.48h10.72c38.72 0 106.56-6.56 152.8-48a138.56 138.56 0 0 0 32-40.32A146.56 146.56 0 0 0 256 412.48a148.8 148.8 0 0 0 112 42.88h398.08A365.6 365.6 0 0 1 736 576a176 176 0 0 0-110.4-40 176 176 0 0 0-160 253.44c-11.68 2.08-23.52 3.68-35.68 4.8l-16 0.96h-32l-13.92-0.96A368 368 0 0 1 33.12 456.48z m688 149.76c-5.44 9.76-11.2 19.04-17.44 28.16a55.36 55.36 0 0 1-3.52 4.96c-5.6 8-11.52 16-17.76 23.36l-5.76 6.72c-5.92 6.72-11.84 13.12-18.24 19.36-2.4 2.56-4.96 4.96-7.52 7.36-6.24 5.76-12.48 11.36-19.04 16L624 720c-6.72 5.28-13.76 10.4-20.96 15.2l-8 5.12c-7.84 4.8-16 9.44-24 13.76l-6.72 3.36c-8.96 4.48-18.08 8.64-27.52 12.48l-4.8 1.76a294.4 294.4 0 0 1-31.04 10.4h-1.76a144.8 144.8 0 0 1 128-214.08 143.04 143.04 0 0 1 96 36.8zM416 947.2a16 16 0 0 1-33.12 0v-120H416zM864 448a68.16 68.16 0 0 1-66.56-53.76c0-4.96-0.8-9.92-1.44-14.72a67.84 67.84 0 0 1 105.76-56.16 44.48 44.48 0 0 0 4.32 3.36A67.84 67.84 0 0 1 864 448z m84-140.32a43.2 43.2 0 0 1-22.56-6.56c-1.92-1.44-3.84-3.04-5.92-4.32a43.52 43.52 0 1 1 28.48 10.88z" fill="#FF00C8" p-id="1533"></path><path d="M410.88 535.52m-40 0a40 40 0 1 0 80 0 40 40 0 1 0-80 0Z" fill="#FF00C8" p-id="1534"></path><path d="M212.16 535.52m-40 0a40 40 0 1 0 80 0 40 40 0 1 0-80 0Z" fill="#FF00C8" p-id="1535"></path><path d="M288 633.6a24.48 24.48 0 0 1 9.76-46.88 28.64 28.64 0 0 1 26.24 28.48v36.8a28.48 28.48 0 0 1-26.4 28.32 24.32 24.32 0 0 1-9.6-46.72z" fill="#FF00C8" p-id="1536"></path></svg>