<svg t="1612581111279" class="icon" viewBox="0 0 1024 1024" version="1.1" xmlns="http://www.w3.org/2000/svg" p-id="14253" width="200" height="200"><path d="M155.4 759.33m-81 0a81 81 0 1 0 162 0 81 81 0 1 0-162 0Z" fill="#FFAFAF" p-id="14254"></path><path d="M812.4 480.33m-81 0a81 81 0 1 0 162 0 81 81 0 1 0-162 0Z" fill="#FFAFAF" p-id="14255"></path><path d="M676.05 742.68m-196.65 0a196.65 196.65 0 1 0 393.3 0 196.65 196.65 0 1 0-393.3 0Z" fill="#FFAFAF" p-id="14256"></path><path d="M334.5 380.43m-269.1 0a269.1 269.1 0 1 0 538.2 0 269.1 269.1 0 1 0-538.2 0Z" fill="#FFAFAF" p-id="14257"></path><path d="M756.32 314.11C723.56 225 677.53 165.7 592.27 127.57c-31.85-14.25-67.56-23.59-101.38-16.68-33.81-6.91-69.53 2.43-101.37 16.68-85.26 38.13-138.36 98.75-171.12 187.83-34.83 94.74-30.23 181.18-36 250.43v339.09l594 7.41V723.19c0-128.79-7.85-195.32-3.51-290.79 1.77-39.12-1.89-78.4-16.57-118.29z" fill="#5E361B" p-id="14258"></path><path d="M331.15 431.18a2.94 2.94 0 0 0-1.39 4.65c13-15.25 30.38-27.43 50.07-31.24s41.66 1.75 55 16.7M363.51 392.37c0 0.66-1.24 0.33-1.21-0.32s0.68-1.07 1.26-1.37a74.07 74.07 0 0 1 61.6-2.21M394.73 346.74a36.56 36.56 0 0 1 39 2.26c-0.39-5-4.61-9-9.32-10.77s-9.86-1.6-14.88-1.45c-8.3 0.24-17.62 0.94-23.1 7.19M378.26 437c-7.61 0.49-12.94 7.54-16.65 14.2-4.48 8-8.3 16.73-8.5 25.91-0.35 15.75 11.14 30.8 26.24 35.31s32.54-1.41 42.38-13.72 11.87-30.13 5.78-44.66c-2.26-5.39-5.64-10.44-10.45-13.76-6.66-4.59-15.21-5.34-23.3-5.2-8.69 0.15-18.45 1.75-23.51 8.82" fill="#FFEFE5" p-id="14259"></path><path d="M391.12 480.09c-3 2.08-0.92 7.58 2.7 8s6.83-3 7.33-6.58a6.54 6.54 0 0 0-0.32-3.37c-1.32-3.25-6.18-4-8.83-1.72s-2.91 6.61-1.08 9.61a11.7 11.7 0 0 0 8.77 5.09 5.81 5.81 0 0 0 3-0.29 6.28 6.28 0 0 0 2.92-3.67 15.23 15.23 0 0 0 0.69-10.27c-1.11-3.33-4-6.15-7.53-6.49a8.61 8.61 0 0 0-5.77 1.66c-4.83 3.49-5 11.74-0.33 15.43s12.66 1.61 14.93-3.89a16.23 16.23 0 0 0 0.71-7.87c-0.27-2.6-0.8-5.29-2.39-7.36-3.62-4.73-12-3.77-15.23 1.22s-1.59 12.2 2.89 16.13c2.61 2.29 6.36 3.64 9.62 2.44a10.06 10.06 0 0 0 5.3-5.39c2.08-4.47 1.88-10.08-1-14s-8.65-5.81-13.12-3.76-6.77 8.14-4.3 12.41M491.21 499.24l-5.55 15.55c-1.83 5.11-3.57 11.09-0.65 15.65 3.95 6.18 13.09 5.24 20.23 3.56M467.76 564.41c-2.21 4.36 1 9.58 4.89 12.59a29.49 29.49 0 0 0 44.63-10.28M376.56 539a114.94 114.94 0 0 0-7.12 20M403.62 543.59a19.79 19.79 0 0 1 0.79 9.92M650.63 431.18a2.94 2.94 0 0 1 1.39 4.65c-13-15.25-30.38-27.43-50.06-31.24s-41.67 1.75-55 16.7M618.27 392.37c0.05 0.66 1.24 0.33 1.21-0.32s-0.68-1.07-1.26-1.37a74.07 74.07 0 0 0-61.6-2.21M587.06 346.74a36.55 36.55 0 0 0-39 2.26c0.39-5 4.6-9 9.31-10.77s9.87-1.6 14.88-1.45c8.31 0.24 17.62 0.94 23.1 7.19M603.53 437c7.6 0.49 12.93 7.54 16.65 14.2 4.48 8 8.3 16.73 8.5 25.91 0.35 15.75-11.15 30.8-26.25 35.31s-32.54-1.41-42.37-13.72-11.88-30.13-5.78-44.66c2.26-5.39 5.64-10.44 10.44-13.76 6.66-4.59 15.21-5.34 23.3-5.2 8.69 0.15 18.45 1.75 23.52 8.82" fill="#FFEFE5" p-id="14260"></path><path d="M590.66 480.09c3 2.08 0.92 7.58-2.69 8s-6.83-3-7.34-6.58a6.54 6.54 0 0 1 0.32-3.37c1.32-3.25 6.19-4 8.83-1.72s2.91 6.61 1.09 9.61a11.7 11.7 0 0 1-8.77 5.09 5.79 5.79 0 0 1-3-0.29 6.28 6.28 0 0 1-2.92-3.67 15.11 15.11 0 0 1-0.69-10.27c1.11-3.33 4-6.15 7.53-6.49a8.58 8.58 0 0 1 5.76 1.66c4.83 3.49 5 11.74 0.34 15.43s-12.66 1.61-14.94-3.89a16.35 16.35 0 0 1-0.7-7.87c0.27-2.6 0.79-5.29 2.38-7.36 3.63-4.73 12-3.77 15.23 1.22s1.6 12.2-2.88 16.13c-2.62 2.29-6.37 3.64-9.63 2.44a10.13 10.13 0 0 1-5.3-5.39c-2.08-4.47-1.88-10.08 1-14s8.65-5.81 13.12-3.76 6.77 8.14 4.3 12.41M605.23 539a114.91 114.91 0 0 1 7.11 20M578.17 543.59a19.68 19.68 0 0 0-0.79 9.92" fill="#FFEFE5" p-id="14261"></path><path d="M510.17 194.18c-32 72.29-96.65 124-158.93 172.67a24.15 24.15 0 0 1-0.47-17.66c-29.95 16.84-52 49.13-60.61 82.41-11.87 46.07-13.62 69.92-10.53 102.95l2.58-7c-0.95 25.83 11.33 51 29.39 69.47s41.47 40.81 65.63 50c13.47 5.13 13.19-0.31 24 9.18s16.64 25.88 9.92 38.64H555.4c-6.71-12.76-0.23-29.15 10.62-38.64s25.07-13.92 38.54-19.05c24.15-9.2 47.56-21.66 65.62-40.14s30.35-43.64 29.4-69.47l2.58 7c3.09-33 1.34-56.88-10.53-102.95C683.05 398.32 661 366 631 349.19a24.05 24.05 0 0 1-0.47 17.66C568.27 318.13 522.32 304 490.31 231.68" fill="#FFEFE5" p-id="14262"></path><path d="M508.05 193c-29 54.69-72.86 98-120.16 137-13.46 11.1-27.18 21.89-40.92 32.64l9.95 2.63a20.37 20.37 0 0 1-0.46-14.5c1.66-5.06-4.41-9.2-8.75-6.72-30.86 17.65-53 49.1-62.56 83-9.12 32.32-14.58 65.76-12.2 99.37 0.87 12.39 3 24 7.59 35.54a264 264 0 0 0 18 36c14.37 24.72 30.89 48.23 43.95 73.71 10.54 20.57 22.09 47.81 7.94 69.42-4.21 6.43 6.1 12.4 10.28 6 12.62-19.27 8.59-42.91 0.47-63.08-10.32-25.67-25.88-48.87-40.4-72.28-13.41-21.62-28.34-44.4-34-69.55-2.89-12.92-2.93-27-2.54-40.13 0.48-16.08 3-31.94 6.45-47.64 4.53-20.71 9.95-40.64 21.18-58.84 10.43-16.9 24.53-31.45 41.82-41.34l-8.69-6.62a30.71 30.71 0 0 0 0.47 20.82c1.73 4.46 6.25 5.52 9.95 2.63 48.78-38.16 98.9-77.5 133.42-129.75a225.24 225.24 0 0 0 23.61-46.5c0.93-2.54-3.11-4.21-4.37-1.84z" fill="#5E361B" p-id="14263"></path><path d="M499.54 110.59c-46.23-15.67-96.9 3.27-137.86 25.15C327.07 154.22 296 179 271 209.29c-26 31.62-44.91 68.1-58.89 106.45-17 46.72-26.46 95.57-29.54 145.15-3.35 53.8-0.68 107.88-0.68 161.76v152c0 38.26-0.64 76.58 0 114.84v1.91c0 7.6 11.81 7.61 11.81 0V640.43c0-44.59-1-89.19-0.74-133.77 0.27-46.25 3.82-92.31 14.87-137.34 10.59-43.13 26.65-85.39 50.29-123.12a290.31 290.31 0 0 1 78.41-83 341.48 341.48 0 0 1 52.59-30.2c22.66-10.59 47-19 72.11-20.51a135.28 135.28 0 0 1 37.07 2.67 2.34 2.34 0 0 0 1.24-4.52z" fill="#5E361B" p-id="14264"></path><path d="M343.29 413.05a5.93 5.93 0 0 0-5 4.2c-0.91 2.81 2.31 4.67 4.63 3.56 8.4-4.05 15.8-9.62 24.66-12.89a70.53 70.53 0 0 1 26.58-4.8A53 53 0 0 1 417 409a45.7 45.7 0 0 1 10.18 7.21c3 2.87 5.17 6.48 8.57 8.89 4.05 2.87 8.67-1.86 7.78-6-1.9-8.81-13.09-16.41-20.56-20.33a64.34 64.34 0 0 0-28.05-7.34 71.43 71.43 0 0 0-30.67 6.42c-9.36 4.14-19.5 10.26-25.64 18.63l4.32-1.13 0.87-0.39c0.84-0.46 0.53-2-0.52-1.92zM535.9 413.05a5.93 5.93 0 0 0-5 4.2c-0.91 2.81 2.31 4.67 4.62 3.56 8.41-4.05 15.81-9.62 24.67-12.89a70.53 70.53 0 0 1 26.58-4.8 53 53 0 0 1 22.85 5.88 45.7 45.7 0 0 1 10.18 7.21c3 2.87 5.17 6.48 8.57 8.89 4 2.87 8.67-1.86 7.78-6-1.9-8.81-13.09-16.41-20.56-20.33a64.35 64.35 0 0 0-28.06-7.34 71.39 71.39 0 0 0-30.66 6.42c-9.36 4.14-19.5 10.26-25.64 18.63l4.31-1.13 0.88-0.39c0.83-0.46 0.53-2-0.52-1.92zM381.84 350.22c12.56-4.39 24.29-3.29 35.27 4.51 4.68 3.33 9.22-2.16 8.58-6.6-1.83-12.73-15.46-16.69-26.47-16.69-9.67 0-26.19 0.2-31.19 10.44-2.38 4.88 2.49 10.2 7.5 7.51 3.53-1.9 6-4.12 10-5a56.51 56.51 0 0 1 10.31-1c6.67-0.21 17.24-0.82 18.55 7.82l8.59-6.6c-12.72-8.88-31.64-8.82-44 0.73-2.31 1.78 0.2 5.77 2.82 4.85z" fill="#141E3D" p-id="14265"></path><path d="M381.87 437c-7.61 0.49-12.94 7.54-16.65 14.2-4.48 8-8.3 16.73-8.5 25.91-0.35 15.75 11.15 30.8 26.24 35.31s32.54-1.41 42.38-13.72 11.87-30.13 5.78-44.66c-2.26-5.39-5.64-10.44-10.45-13.76-6.66-4.59-15.2-5.34-23.29-5.2-8.7 0.15-18.46 1.75-23.52 8.82" fill="#B2C8DD" p-id="14266"></path><path d="M378.2 434.75c-9.3 0.6-15.26 7-20.13 14.36-5.69 8.62-10.48 18.86-10.52 29.38-0.09 19.1 15 36.81 33.63 40.43a47 47 0 0 0 48.65-21.63c10.28-17.11 9.53-41.76-3.93-57-7.95-9-19.87-11.3-31.38-11.19-10.28 0.1-21.82 2-28.54 10.57-4.67 6 3.7 14.45 8.42 8.42 4.21-5.39 10.68-6.7 17.23-7 7.39-0.34 16.13-0.26 22.37 4.32 11.85 8.72 13.19 27.81 8.25 40.51a35.21 35.21 0 0 1-32.42 22.05c-13.8 0.05-25.86-9.5-30-22.55-2.76-8.75-0.85-17.8 2.5-26.1 3.05-7.57 7.33-18.62 16.42-20.2 2.44-0.43 1.89-4.49-0.58-4.33z" fill="#141E3D" p-id="14267"></path><path d="M390 478.14c-10.6-0.7-15.12 11.89-10.88 20.1 4.76 9.21 16.56 11.88 25.28 6.41 9.74-6.11 13.52-19.62 7.25-29.48-6.83-10.75-23.23-12.68-32.34-3.72-8.06 7.93-9.4 21.38-2.85 30.67 6.77 9.6 20.24 15.19 31.53 10.43s15.54-18.27 14-29.6a26 26 0 0 0-22.11-22.33c-23.93-3.22-38 28.68-20.54 44.85a26.54 26.54 0 0 0 28.69 4.76c10.32-4.36 16.13-14.44 16-25.51-0.14-10.5-4-20.9-13.45-26.33-8.48-4.87-20-3.91-27.84 1.62-19.18 13.45-12.39 46 10.6 51.07 28.86 6.36 43.05-34 21.28-50.8-9-6.95-22.21-8.69-31.83-1.78-11.24 8.08-14 21.57-8.23 33.88 3.73 7.9 15.7 10.56 22.8 6 8.14-5.25 10-14.35 6-22.81 2.21 4.67 1.15 4.44 0.46 7.83-0.63 1.2-0.57 1.12 0.19-0.22l-3.4 3.39a6.44 6.44 0 0 1-4.38 0.68c-1.36-0.25-3.06-2-1.19-0.26-1-0.9-2-1.31-2.53-2.65a2.06 2.06 0 0 1-0.34-1.41c-0.08-1.26-0.09-1 0 0.71-0.62-0.94 0.84-2.19-0.22-0.07 0.84-1.67 1.15-2.79 3-3.75 2.94-1.55 5.52-1.14 8.52-0.19 1.06 1.07 1.19 1.21 0.4 0.43s-0.66-0.64 0 0.1c0.29 1.22 1.82 2.88 0.59 0.74l0.21 1.72v-0.45a11.42 11.42 0 0 1-4.05 5.92c1.85-1.64-0.38 0.21-1.79 0.36s-4.11-1.1-2 0c-2.23-1.18-4.29-2.18-5.72-4.28-0.43-0.63-0.7-3.81-0.29-0.24 0.21 1.78-0.47 1.59 0.26 0.33a10.39 10.39 0 0 1 2.57-3.57c0.93-0.72 4-1.61 1.43-1a8 8 0 0 1 8.81 3.34c0.45 0.73 1.19 4.87 1.12 3.31 0-1 0-0.79-0.07 0.46a5 5 0 0 1-0.83 2.9c-2.72 5.07-11.76 5.17-14.3-0.13-0.36-0.75-0.18-2-0.52-2.63 0.87 1.52-0.79 2.19 0.55-0.4l11.77-5-1.46-0.4a8.63 8.63 0 0 1 4.31 3.93c3.84 7.36-8.86 18.13-15.23 10.29l-3.86-6.63a9.51 9.51 0 0 0 1.28-3.82q1.91-3 6.44 0 9.25 3.09 4.13-1.77a4.6 4.6 0 0 1 1.45 3.59 8.73 8.73 0 0 0-8.53-8.53zM488.81 497.87c-4 5.41-6.74 12.47-9.11 18.74-2.15 5.68-2.75 11.9 0.68 17.23 5.21 8.06 21.13 10.58 27.78 3.14 2.29-2.56 1.1-5.82-1.86-7.05-4.79-2-15.92 2.48-17.27-4.69-0.78-4.15 1.05-8.76 2.1-12.72 1.17-4.37 2.5-8.74 2.74-13.28 0.16-2.95-3.61-3.35-5.06-1.37zM457.24 570.29c-10.53 18.57 19 30.11 32.66 31.43 18.6 1.78 38.91-7.33 47.71-24.2 3.28-6.3-5.66-11.52-9.51-5.56a40.84 40.84 0 0 1-32.56 18.46 46.72 46.72 0 0 1-20.54-3.76c-4.72-2.1-15.05-7.46-12.48-14.15 1.19-3.09-3.68-5-5.27-2.22zM373.6 537.34a50 50 0 0 0-6.7 11.46c-1.67 4-4 8.48-1.46 12.51a4.67 4.67 0 0 0 6.25 1.64c3.91-2.14 4.21-6.72 5.25-10.67 1.08-4.12 1.92-8.2 2.79-12.36 0.81-3.89-3.87-5.55-6.13-2.58z" fill="#141E3D" p-id="14268"></path><path d="M488 232.31c9 24.73 22.6 47.18 41.43 65.7 17.26 17 37.4 30.62 57.25 44.36 13.4 9.28 26.74 18.66 39.6 28.69 3.7 2.89 8.21 1.84 10-2.63a30.65 30.65 0 0 0 0.46-20.82l-8.74 6.72c31.5 18 50.72 50 59.31 84.5 7.9 31.69 12.23 63.08 8.88 95.72-2.49 24.34-16.92 47.18-29.32 67.62-14.46 23.84-30.51 47-42.22 72.38-10.39 22.53-18.41 50.09-3.65 72.64 4.18 6.39 14.5 0.43 10.28-6-12.26-18.74-5-41.93 3.66-60.62 11.87-25.77 28.22-49.24 42.86-73.45 13-21.5 26.92-44.88 30-70.27 3.94-32-0.08-63.7-7.51-94.87-4.83-20.27-11.5-39.47-23.19-56.9-11.17-16.65-25.68-31-43.14-41-4.32-2.47-10.4 1.66-8.74 6.72a20.36 20.36 0 0 1-0.47 14.5l10-2.63c-21-16.4-43.33-30.9-65.08-46.28-19.2-13.58-37.43-28.39-52.15-46.88a258.79 258.79 0 0 1-25.09-39c-1.26-2.34-5.31-0.74-4.37 1.84z" fill="#5E361B" p-id="14269"></path><path d="M483.37 115.11c30.41-7.52 62.27-1.47 91.07 9.53a304.71 304.71 0 0 1 67.15 35.94c37.32 26.46 65.84 62 86.72 102.51 10 19.45 19.47 40.06 25.49 61.14 6.17 21.6 10.12 44 13.11 66.22a473.3 473.3 0 0 1 3.81 63.27v143.07l-0.06 100.08-0.06 96.5v75.92c0 12.78-0.22 25.59 0 38.37v1.74c0 7.63 11.86 7.64 11.86 0v-27.27-70l-0.06-94.46-0.06-102.19-0.06-91.77v-63.62c0-15.19 0-30.29-1.3-45.46a552.13 552.13 0 0 0-12-75.72c-4.63-20.17-11.8-39.14-20.2-58.05-18.82-42.38-44.85-81.68-80.47-111.79a290.68 290.68 0 0 0-59.57-38.57c-26.06-12.8-54.41-23.5-83.68-25a123.57 123.57 0 0 0-42.74 5.08 2.35 2.35 0 0 0 1.25 4.52z" fill="#5E361B" p-id="14270"></path><path d="M597.91 344.68c-12.36-9.55-31.28-9.61-44-0.72l8.58 6.59c1.31-8.64 11.91-8 18.56-7.82a55.73 55.73 0 0 1 10.31 1c4.06 0.9 6.49 3.11 10 5 5 2.69 9.89-2.62 7.5-7.5-5-10.26-21.52-10.42-31.19-10.44-11 0-24.64 4-26.47 16.69-0.64 4.41 3.92 9.91 8.58 6.6 11-7.8 22.71-8.9 35.27-4.51 2.63 0.92 5.14-3.07 2.83-4.86z" fill="#141E3D" p-id="14271"></path><path d="M604.44 437c7.6 0.49 12.93 7.54 16.65 14.2 4.48 8 8.29 16.73 8.5 25.91 0.34 15.75-11.15 30.8-26.25 35.31S570.8 511 561 498.65s-11.87-30.13-5.77-44.66c2.25-5.39 5.64-10.44 10.44-13.76 6.66-4.59 15.21-5.34 23.3-5.2 8.69 0.15 18.45 1.75 23.51 8.82" fill="#B2C8DD" p-id="14272"></path><path d="M602.88 439.08c7.89 1.37 11.91 9.85 14.84 16.47 3.38 7.62 6.26 15.89 5.3 24.37-1.52 13.4-12.41 25.23-25.69 27.58-13.57 2.41-28.16-4.48-35.22-16.22-7.34-12.23-7.48-29.55 1-41.29 5.67-7.8 15-9.1 24-9 7.4 0.07 15.27 0.88 20.12 7.08 4.71 6 13.09-2.45 8.42-8.42-6-7.6-15.75-9.94-25-10.46-9.81-0.55-20.71 0.27-29.08 5.91-17.13 11.54-20.46 37.35-13.16 55.36s25.31 30.08 44.76 29.33c19.1-0.73 36.75-15.06 40.18-34.14 2.07-11.58-1.65-22.95-7.54-32.87-5.16-8.67-11.59-17.33-22.43-18-2.45-0.16-3.05 3.9-0.59 4.33z" fill="#141E3D" p-id="14273"></path><path d="M593.53 486.67a4.6 4.6 0 0 1 1.45-3.59q-5.13 4.86 4.13 1.77 4.53-3 6.44 0a9.51 9.51 0 0 0 1.28 3.82l-3.83 6.68c-1.55 1.91-8.13 2.06-10.11 1.48-4.56-1.33-6.4-6.87-5.46-11 0.36-1.57 4-4.73 4-4.48 0.85-0.27 0.81-0.26-0.12 0q-7.25 1.73 11 5.16c0.25 0.66 0.61 3.26 0.56 1.27s-0.23 1.13-0.53 1.76c-2.6 5.39-11.43 5.13-14.3 0.13a7.87 7.87 0 0 1-0.91-3.95c0 2.81 0.37-1.05 0.71-1.82 1.64-3.79 4.68-4.07 8.18-4.43 1.43 0.29 1.39 0.25-0.1-0.11l1.83 0.73c1.18 1.11 2.31 1.87 3 3.46 0.55 1.29 0.19 3.23 0.59 0.38 0.32-2.35 0.49-1-0.29 0.24-1.4 2.25-2.87 3.07-5.72 4.28 2-0.85 0.11 0.08-1 0.12a4.78 4.78 0 0 1-3-0.67c-1-0.52-1.17-0.56-0.37-0.11 2 1.27-2.93-3-3.5-4.72-0.08-2-0.1-2.4-0.07-1.12 0 1 0 0.9 0.11-0.19 0.38-2.25-0.5 2.23 0.22-1l1-1.16c-1.13 1.12-1.31 1.28-0.53 0.5 3.9-0.07 4.1-3.27 9-0.26 1.3 0.81 1.77 2 2.71 3 0.33 1 0.35 1 0.05 0-0.31-1.2-0.31-0.94 0 0.78v-1.47l-0.11 1.53c-0.78 1.79-1.39 2-2.82 3.29 1.43-1.25 1.11-0.16-0.29 0.11a7.49 7.49 0 0 1-4.45-0.22c-2-0.73-5.29-5.94-3.61-2.64-1.56-3.06-1.67-5.08 0-8.67-3.72 7.87-2.46 18.35 6 22.81 7.4 3.91 18.83 2.43 22.8-6 4.92-10.43 3.92-21.71-4-30.4s-20.64-9.58-30.89-5c-20.23 9.06-21.19 40.57-2.24 51.6 21.51 12.52 45.41-11.95 39.48-33.76-5.83-21.47-37.62-27.32-48.16-6.26-4.61 9.19-5.51 22.64 0.32 31.56a27.06 27.06 0 0 0 26.41 12.09c22.66-3.05 29.52-33 11.82-46.66a24.94 24.94 0 0 0-32.31 1.76c-8.24 7.88-10.16 20.35-6.4 30.84C576 510.75 587.8 517 600.82 513c10.95-3.41 19.56-13.61 19-25.42-0.71-14.31-13.55-24.85-27.73-21-14.35 3.94-18.85 21.27-10.21 32.63 7.26 9.55 22.82 11.88 30 0.84 5.35-8.18 2-22.69-9.82-21.91a8.72 8.72 0 0 0-8.53 8.53zM601.94 539.92c0.87 4.17 1.7 8.23 2.78 12.36 1 4 1.35 8.54 5.26 10.67a4.67 4.67 0 0 0 6.25-1.64c2.54-4 0.21-8.53-1.46-12.51a49.84 49.84 0 0 0-6.71-11.46c-2.24-3-6.94-1.34-6.12 2.58z" fill="#141E3D" p-id="14274"></path><path d="M378 541.06c-5.28-3.34-12.79-0.81-14.64 5.31-2.15 7.1 4.77 14.22 11.85 13.32 3.44-0.43 7-3.4 5.6-7.35-4.93-14.15-28.47-13.74-28.08 3.12 0.16 6.67 4.82 13.13 11.59 14.2 7.08 1.12 13.4-4.15 15-10.89 4.57-18.87-26.09-22.76-34.82-9.93-10.44 15.32 11.29 29 25.05 26.24A15.47 15.47 0 0 0 382.18 560c0-7.91-5.3-14.69-12.43-17.62-7.53-3.09-18.24-2.86-25.37 1.32-6.84 4-8.81 12.52-6.36 19.72 5.7 16.75 31.67 18.94 45.32 11.54 6.71-3.63 11.42-11.09 10-18.84-1.62-8.55-9.5-14.27-16.93-17.68-14.61-6.7-35.51-4.65-40.27 13.53-4.87 18.65 15.5 26.34 30.33 26.58 8.23 0.14 17.21-1.83 23.19-7.89 5.18-5.24 7.91-13.43 5.83-20.64-2.35-8.15-10-11.81-17.42-14.43-8-2.84-16.83-4.32-25.23-2.53-15.49 3.31-24.15 20-18.46 34.72 6.05 15.62 25.81 19.3 40.77 18.6 7.78-0.37 15.84-2.52 21-8.68 5.54-6.54 6.21-15.85 3-23.61-6.57-16.05-28.07-26-44.62-21.67-15.29 4-25.53 22.89-15.26 36.54 8.89 11.83 28 15.82 41.84 12.84 15.13-3.26 24.5-17.82 19.58-32.82-5.18-15.83-21-23.26-36.84-20.47-8.42 1.48-16 5.79-22.41 11.3-5.83 5 2.63 13.38 8.42 8.42 6.95-6 16.72-10.1 26-8a18.52 18.52 0 0 1 14.3 15.77c1.94 19-26 15.9-36.24 10-7.6-4.35-9.22-12.75-2.39-18.91 7.77-7 19.92-3.44 27.73 1.57 6.7 4.29 15 15.47 6.67 22.45-6 5-16.56 3.58-23.62 2.4-8.3-1.39-17-4.62-17.78-14.18-0.71-8.72 5.76-14.69 14.15-15.21a37.91 37.91 0 0 1 13.32 1.97c3.5 1.06 9.11 2.44 11.33 5.65 2 2.89 0.65 7.13-1.34 9.67-3 3.86-8.51 5-13.16 5.2-6.25 0.26-19.91-0.36-21.41-8.49-1.76-9.51 10.62-12.69 17.42-11.18 5.57 1.23 22.94 8.64 14.67 16.27-3.56 3.29-9.37 3.39-13.93 3.4s-9.91-0.25-13.56-3.18c-3-2.38-4.83-7.64-0.83-9.8s11.43-2 15.33 0.29c2.55 1.51 5.61 6 2.72 8.67-2.58 2.35-7.76 0.44-10.36-0.85-1.53-0.76-5.1-2.57-5.14-4.52-0.06-2.45 3-3.64 4.89-4 2.18-0.4 10.7-0.3 8.93 3.43-1.18 2.49-3.55 0.33-3-1.75 0.58-2.29 4.38-1.47 5.08 0.5l4.06-7.15c-2.36 0.91-0.83-1.87 1.66-0.88 3.78 1.5 5.85-4.32 2.68-6.34zM622.44 541.06c-5.27-3.34-12.79-0.81-14.64 5.31-2.14 7.1 4.78 14.22 11.85 13.32 3.45-0.43 7-3.4 5.6-7.35-4.93-14.15-28.46-13.74-28.07 3.12 0.15 6.67 4.81 13.13 11.58 14.2 7.08 1.12 13.4-4.15 15-10.89 4.57-18.87-26.08-22.76-34.82-9.93-10.43 15.32 11.29 29 25 26.24a15.46 15.46 0 0 0 12.7-15.08c0-7.91-5.29-14.69-12.42-17.62-7.54-3.09-18.25-2.86-25.38 1.32-6.84 4-8.81 12.52-6.36 19.72 5.7 16.75 31.67 18.94 45.33 11.54 6.7-3.63 11.41-11.09 9.94-18.84-1.61-8.55-9.49-14.27-16.93-17.68-14.61-6.7-35.51-4.65-40.26 13.53-4.88 18.65 15.5 26.34 30.32 26.58 8.24 0.14 17.21-1.83 23.19-7.89 5.19-5.24 7.91-13.43 5.83-20.64-2.34-8.15-10-11.81-17.42-14.43-8-2.84-16.83-4.32-25.23-2.53-15.48 3.31-24.15 20-18.46 34.72 6.05 15.62 25.81 19.3 40.78 18.6 7.78-0.37 15.83-2.52 21-8.68 5.54-6.54 6.21-15.85 3-23.61-6.57-16.05-28.08-26-44.63-21.67-15.28 4-25.53 22.89-15.26 36.54 8.89 11.83 28 15.82 41.84 12.84 15.13-3.26 24.5-17.82 19.59-32.82-5.19-15.83-21-23.26-36.84-20.47-8.43 1.48-16 5.79-22.42 11.3-5.83 5 2.63 13.38 8.42 8.42 6.95-6 16.72-10.1 26-8A18.53 18.53 0 0 1 634.63 556c1.93 19-26 15.9-36.24 10-7.61-4.35-9.23-12.75-2.4-18.91 7.78-7 19.92-3.44 27.73 1.57 6.7 4.29 15 15.47 6.67 22.45-6 5-16.56 3.58-23.62 2.4-8.29-1.39-17-4.62-17.78-14.18-0.71-8.72 5.76-14.69 14.15-15.21a38 38 0 0 1 13.29 1.91c3.49 1.06 9.11 2.44 11.32 5.65 2 2.89 0.65 7.13-1.34 9.67-3 3.86-8.51 5-13.16 5.2-6.25 0.26-19.91-0.36-21.41-8.49-1.76-9.51 10.63-12.69 17.42-11.18 5.57 1.23 23 8.64 14.68 16.27-3.57 3.29-9.37 3.39-13.94 3.4s-9.9-0.25-13.56-3.18c-3-2.38-4.83-7.64-0.83-9.8s11.43-2 15.33 0.29c2.55 1.51 5.61 6 2.72 8.67-2.57 2.35-7.75 0.44-10.35-0.85-1.53-0.76-5.11-2.57-5.15-4.52 0-2.45 3-3.64 4.89-4 2.18-0.4 10.71-0.3 8.93 3.43-1.18 2.49-3.55 0.33-3-1.75 0.58-2.29 4.38-1.47 5.08 0.5l4.06-7.15c-2.35 0.91-0.83-1.87 1.67-0.88 3.78 1.5 5.85-4.32 2.67-6.34z" fill="#EE8179" p-id="14275"></path><path d="M583.87 465.87c-4.67-3.52-10.67 2.55-9.15 7.46 1.6 5.2 8.2 7 12.45 3.86a9.46 9.46 0 0 0 3.63-6.13 7.48 7.48 0 0 0-0.46-4.87 7.2 7.2 0 0 0-2.91-2.72c-5.8-3.15-13.48 2-11.92 8.66a5.45 5.45 0 0 0 5.2 4 5.73 5.73 0 0 0 5.2-4c-0.49 1.19-0.41 1 0.25-0.58-0.4 0.83-0.45 1-0.16 0.49-0.57 0.69-0.65 0.83-0.25 0.42-0.7 0.51-0.8 0.62-0.31 0.33s0.38-0.19-0.42 0.14c0.55-0.14 0.4-0.15-0.46 0 0.55 0 0.41 0-0.43-0.09-0.68-0.34-0.79-0.37-0.34-0.09l-2.21-2.86c0.31 0.88 0.13 0.81 0.24-0.05-0.15 0.5-0.13 0.53 0.07 0.09a4.76 4.76 0 0 1-0.4 0.69 0.83 0.83 0 0 1 0.45-0.47q-0.71 0.41 0 0c1.34 0-1.1-0.4 0.15 0-0.46-0.14-0.46-0.14 0 0 0.36 0.33 0.37 0.33 0 0 0.13 0.21 0.59 1.44 0.4 0.58a0.88 0.88 0 0 1-0.12 0.55c0.23-0.37 0.25-0.43 0.06-0.19s0.38 0 0 0c3-0.11 3.57-3.62 1.42-5.24zM600.41 482.22a3.62 3.62 0 0 0-5.21 0l1.42-0.83a3.81 3.81 0 0 0-2.84 4 4 4 0 0 0 1.53 3 3.8 3.8 0 0 0 3.37 0.69 5.28 5.28 0 0 0 3.82-5.08 5.5 5.5 0 0 0-1.48-3.7 6 6 0 0 0-4.07-1.45l1.18 0.16a9.29 9.29 0 0 0-2.35-0.3 4.91 4.91 0 0 0-2.87 1 4.33 4.33 0 0 0-1.69 2.46 5.77 5.77 0 0 0 0.53 4.1 5.33 5.33 0 0 0 2.63 2.33 5.64 5.64 0 0 0 6.31-1.18 5.17 5.17 0 0 0 1.45-3.49 5 5 0 0 0-4.95-4.95 4.92 4.92 0 0 0-3.5 1.45 0.61 0.61 0 0 1-0.16 0.16l1-0.78-0.09 0.05 1.18-0.49a0.8 0.8 0 0 1-0.21 0.05l1.31-0.17h-0.23l1.31 0.18a3.52 3.52 0 0 1-0.43-0.13l1.17 0.49a1.18 1.18 0 0 1-0.19-0.11l1 0.75-0.07-0.07 0.75 1a0.49 0.49 0 0 1-0.11-0.18l0.48 1.13v-0.1l-2.18 5.34 0.84-0.39-1.07 0.45 0.19-0.05-1.18 0.16a5.21 5.21 0 0 1 0.79 0l-1.16-0.16h0.19l-2.61-2a1.63 1.63 0 0 1 0.22 0.38l-0.43-1c0.06 0.19 0.09 0.38 0.13 0.57l-0.15-1.13a3.09 3.09 0 0 1 0 0.43l0.14-1.1a3 3 0 0 1-0.16 0.66l3.73-2.84h-0.09l1.91 0.52a0.81 0.81 0 0 1-0.18-0.1l0.74 0.57a8.7 8.7 0 0 0-0.95-0.75l1.47 3.61c0.09-0.42-0.09-0.21-0.56 0.63a1.88 1.88 0 0 1-2.37 1 2.91 2.91 0 0 0 3.23-1.32 3 3 0 0 0-0.44-3.46zM385.05 470a11.72 11.72 0 0 0-0.52 3 3.19 3.19 0 0 0 2.35 3.09c1.21 0.21 2.42 0.43 3.64 0.61a4 4 0 0 0 3.38-0.7 4 4 0 0 0 1.53-3c0.14-1.88 0.6-4.05-0.41-5.74a6.58 6.58 0 0 0-5.28-3 7.25 7.25 0 0 0-7.67 6.81c-0.22 4.21 3.47 7.14 7.35 7.47a7.35 7.35 0 0 0 7.8-7.1c0.19-4.85-4.52-9.31-9.39-7.91a5.15 5.15 0 0 0-3.71 4.88c0.09 2.1 1.48 4.47 3.71 4.89a2.13 2.13 0 0 1 0.42 0.1c-1.28-0.54-1.14-0.49 0.39 0.16q-1.35-0.63-0.66-0.27 0.47 0.31-0.18-0.15c-0.4-0.33-0.47-0.37-0.2-0.11-0.57-0.78-0.71-1-0.43-0.52 0.41 0.71-0.39-1.41-0.14-0.22l-0.19-1.38a3.43 3.43 0 0 1 0 0.64l0.18-1.37c-0.08 0.57-0.34 0.67 0.28-0.42-0.2 0.32-0.14 0.26 0.17-0.18a2.49 2.49 0 0 1 1-0.94c-0.66 0.39 1.34-0.41 0.55-0.21s1.31-0.09 0.71-0.08c-1 0 1.12 0.26 0.6 0.11-0.79-0.23 0.53 0.23 0.58 0.3a1.19 1.19 0 0 1-0.25-0.13c-0.35-0.21-0.13 0 0.65 0.52-0.52-0.54 0.65 1.14 0.32 0.47l0.36 0.87c-0.13-0.49-0.11-0.24 0.08 0.77 0-0.72-0.19 1-0.3 1.19-0.38 0.9-0.07 0.3 0 0.1-0.61 0.73-0.75 0.92-0.42 0.56l0.15-0.13c-0.49 0.63-0.9 0.7-0.35 0.31 0.3-0.15 0.22-0.12-0.22 0.08s-0.53 0.22-0.21 0.12l-0.87 0.11c0.47 0 0.25-0.05-0.67-0.13h0.18a2.73 2.73 0 0 1-1.31-0.79l-1.05-1.96 0.81 3.29 2.72-4.78c-1.22 0.22-2.43 0.46-3.64 0.7l3.95 2.24a10.93 10.93 0 0 0-0.94-2.79 2.65 2.65 0 0 0-2.64-1.26 2.73 2.73 0 0 0-2.2 1.89zM396 484.89a4 4 0 0 0 1 2.56 0.75 0.75 0 0 0 0.14 0.17l-0.35-0.48 0.49 0.64a4.37 4.37 0 0 0 1.69 1l-1.44-0.84 0.15 0.19a3.6 3.6 0 0 0 3.58 1 5 5 0 0 0 3.6-4.94 5.46 5.46 0 0 0-1.42-3.51 4.64 4.64 0 0 0-4.63-1.31H401a5 5 0 0 0-2.47 0 7.29 7.29 0 0 0-1.18 0.52 5.37 5.37 0 0 0-1.85 1.88 6.75 6.75 0 0 0-0.62 1.47 5.68 5.68 0 0 0-0.17 1.44A4.72 4.72 0 0 0 395 486a5 5 0 0 0 3.34 3.34 4.85 4.85 0 0 0 6.06-4.61 4.83 4.83 0 0 0-2.37-4.13l-0.08-0.06 1 0.75-0.08-0.07 0.74 0.95a1 1 0 0 1-0.11-0.17l0.47 1.11a1.38 1.38 0 0 1-0.08-0.29l0.16 1.21a0.65 0.65 0 0 1 0-0.2l-0.16 1.19a1.46 1.46 0 0 1 0.05-0.2l-0.45 1.06a6 6 0 0 0 0.57-1.39l-1.95 2.54a0.52 0.52 0 0 1 0.18-0.1l-1 0.42h0.11-2.23 0.11l-1-0.42a1.78 1.78 0 0 1 0.3 0.17l-0.83-0.64a0.81 0.81 0 0 1 0.16 0.16l-0.63-0.83a1.83 1.83 0 0 1 0.18 0.3l-0.4-1a1.76 1.76 0 0 1 0.12 0.45l-0.14-1a1.29 1.29 0 0 1 0 0.34l0.14-1-0.06 0.22 0.38-0.91a1.28 1.28 0 0 1-0.11 0.2l0.58-0.75a4.62 4.62 0 0 0-1.23 2.08l2.28-2.28c-0.38 0.15-0.77 0.28-1.13 0.46l1.53-0.41H399l0.77 0.1-0.21-0.05a1.69 1.69 0 0 1 0.84 0.48 2.67 2.67 0 0 0-2.87-0.54 2.61 2.61 0 0 0-1.61 2.4z" fill="#FFFFFF" p-id="14276"></path><path d="M579.87 756.19s-168.47 14.6-178.6-19.84 97.26-89.3 97.26-89.3l61.87 52.31" fill="#FFEFE5" p-id="14277"></path><path d="M373.12 715.26c22.81 39 74.11 58.56 117.08 44.73-9.83 12.89-11.72 30-17.76 45-10.6 26.41-35.84 46.8-64.12 50s-58.17-11.84-71.09-37.19a67.46 67.46 0 0 1-3.94-51.11c5.68-17.29 18.15-31.49 31.45-43.9M608.78 715.26c-22.8 39-74.11 58.56-117.08 44.73 9.83 12.89 11.72 30 17.76 45 10.6 26.41 35.84 46.8 64.12 50s58.18-11.84 71.1-37.19a67.51 67.51 0 0 0 3.93-51.11c-5.68-17.29-18.14-31.49-31.45-43.9" fill="#FFCD2C" p-id="14278"></path><path d="M280.61 527.15c-3.85 18.68 4 40.12 13.9 55.72 10.92 17.28 26.93 32.22 42.39 45.41a161.85 161.85 0 0 0 25.1 18.06c8.28 4.67 17.35 7.53 25.54 12.37 7.78 4.6 15.67 10.32 21 17.77 2.71 3.82 3.88 6.76 4 11.06 0.51 17.36-14.07 33.22-25.36 44.62-5.37 5.43 3 13.82 8.39 8.38 12-12.11 24.73-27 28-44.29 2.41-12.67-1.42-23-10.19-32.37a91.63 91.63 0 0 0-23.77-17.62c-8.77-4.66-18.16-7.69-26.7-12.86-18.59-11.25-35.29-26.35-50.24-42a111.37 111.37 0 0 1-20.29-29.71c-5.21-11.18-6.85-22.46-8.68-34.5-0.23-1.56-2.77-1.48-3.07 0zM698 527.15c-1.6 11.5-3.18 22.36-7.93 33.09a109.57 109.57 0 0 1-17.7 27.59c-15.27 17.42-35.49 29.67-56.64 38.68-10.59 4.51-21.59 7.93-32.16 12.45-8.38 3.58-17.6 8.06-23.7 15-8.38 9.58-11.72 23.47-11.82 35.92-0.18 23.33 11.65 44.28 27.64 60.53 5.36 5.45 13.75-2.93 8.39-8.38-13.83-14.06-24.33-31.93-24.17-52.15 0.08-10.21 3-22.86 10.26-29.5 8-7.3 19-11.18 28.87-15a302.84 302.84 0 0 0 30-12.92c19.63-10 38.22-23.28 51.81-40.83 13.4-17.31 24.58-42.18 20.25-64.57-0.29-1.48-2.86-1.56-3.08 0z" fill="#5E361B" p-id="14279"></path><path d="M695.4 768.3m12 0l165 0q12 0 12 12l0 156.03q0 12-12 12l-165 0q-12 0-12-12l0-156.03q0-12 12-12Z" fill="#72C1E8" p-id="14280"></path><path d="M769.46 658.35m12 0l16.89 0q12 0 12 12l0 32.62q0 12-12 12l-16.89 0q-12 0-12-12l0-32.62q0-12 12-12Z" fill="#72C1E8" p-id="14281"></path><path d="M695.4 714.97m12 0l165 0q12 0 12 12l0 29.33q0 12-12 12l-165 0q-12 0-12-12l0-29.33q0-12 12-12Z" fill="#AFADAD" p-id="14282"></path><path d="M862.36 631.55m0 12l0 5.78q0 12-12 12l-118.81 0q-12 0-12-12l0-5.78q0-12 12-12l118.81 0q12 0 12 12Z" fill="#AFADAD" p-id="14283"></path><path d="M820.61 184.51h-0.05c-24.74-5.71-35.34-28.72-38.28-36.55a1 1 0 0 0-1.79 0c-2.94 7.83-13.53 30.84-38.28 36.55h-0.09a1 1 0 0 0-0.23 1.81c10.48 4.92 36.93 19.94 39.32 47.18h0.35c2.38-27.41 28.76-42.31 39.28-47.19a1 1 0 0 0-0.23-1.8zM148.76 506.22c-24.75-5.71-35.34-28.71-38.28-36.55a1 1 0 0 0-1.8 0c-2.94 7.84-13.53 30.84-38.28 36.55h-0.09A1 1 0 0 0 70 508c10.52 5 37 20 39.35 47.21h0.35c2.38-27.4 28.77-42.3 39.28-47.18a1 1 0 0 0-0.22-1.81zM370.29 716c8.54 22.39 29.26 37.75 50.85 46.5a105.7 105.7 0 0 0 70.51 3.17L485 757c-12.39 16.84-12.86 38.93-23.63 56.6-9.72 15.95-25.43 28.4-43.44 33.4-38.09 10.69-80.37-16.36-82-56.94-1.08-26.58 15.41-45.37 32.78-63.24 5.22-5.37-2.56-12.88-8.12-8.12-18.23 15.61-33.59 36.8-36.2 61.2a72.13 72.13 0 0 0 24.58 62.18c16.17 13.75 38 21.2 59.26 18.83a85.1 85.1 0 0 0 54.4-29 92.24 92.24 0 0 0 17.67-31.46c4.28-12.86 6.74-26.36 14.91-37.5 3.08-4.2-2-10.12-6.67-8.67-20.74 6.52-42.71 5.09-63-2.49-20.54-7.65-36.49-22.19-50.54-38.52-1.78-2.07-5.69 0.13-4.7 2.74z" fill="#FFCD2C" p-id="14284"></path><path d="M606.67 713.27c-14 16.33-30 30.87-50.53 38.54-20.27 7.58-42.24 9-63 2.49-4.61-1.44-9.76 4.46-6.66 8.67 7.18 9.79 10 21.4 13.43 32.82 3.24 10.66 7.53 20.83 14.15 29.84 12.55 17.08 31.13 30.09 52.1 34.22 44.74 8.8 90.25-24.11 91.52-70.61 0.76-28.07-16-52.85-36.59-70.51-5.55-4.76-13.34 2.75-8.12 8.12 15.14 15.58 30.59 32 32.59 54.77a60.86 60.86 0 0 1-23.43 53.83c-14.52 11.13-34 16.42-52.09 13a75 75 0 0 1-45.71-28.87c-6.81-9.11-10.71-19.31-13.93-30.12-3.37-11.32-6.64-22.85-13.73-32.49l-6.67 8.71a105.73 105.73 0 0 0 70.52-3.17c21.59-8.75 42.3-24.11 50.84-46.5 1-2.61-2.91-4.82-4.7-2.74z" fill="#FFCD2C" p-id="14285"></path></svg>